<svg version="1.1" xmlns="http://www.w3.org/2000/svg" viewBox="0 0 354.7056129001081 206.5" width="354.7056129001081" height="206.5" class="excalidraw-svg">
  <!-- svg-source:excalidraw -->
  
  <defs>
    <style class="style-fonts">
      @font-face {
        font-family: "Virgil";
        src: url("https://excalidraw.com/Virgil.woff2");
      }
      @font-face {
        font-family: "Cascadia";
        src: url("https://excalidraw.com/Cascadia.woff2");
      }
      @font-face {
        font-family: "Assistant";
        src: url("https://excalidraw.com/Assistant-Regular.woff2");
      }
    </style>
    
  </defs>
  <rect x="0" y="0" width="354.7056129001081" height="206.5" fill="#ffffff"/><g stroke-linecap="round"><g transform="translate(11.094559433311218 34.88887023925781) rotate(0 152.7777557373047 -0.27777862548828125)"><path d="M-1.09 0.52 C49.71 0.47, 253.9 0.66, 305.05 0.39 M0.53 -0.25 C51.12 -0.69, 253.06 -1.27, 303.84 -1.23" stroke="#1e1e1e" stroke-width="1" fill="none"/></g><g transform="translate(11.094559433311218 34.88887023925781) rotate(0 152.7777557373047 -0.27777862548828125)"><path d="M280.36 7.35 C288.63 4, 296.8 2.57, 303.84 -1.23 M280.36 7.35 C286.79 5.48, 291.85 2.48, 303.84 -1.23" stroke="#1e1e1e" stroke-width="1" fill="none"/></g><g transform="translate(11.094559433311218 34.88887023925781) rotate(0 152.7777557373047 -0.27777862548828125)"><path d="M280.33 -9.75 C288.72 -7.67, 296.89 -3.67, 303.84 -1.23 M280.33 -9.75 C286.85 -7.23, 291.91 -5.83, 303.84 -1.23" stroke="#1e1e1e" stroke-width="1" fill="none"/></g></g><mask/><g stroke-linecap="round"><g transform="translate(11.650040390342468 177.11109924316406) rotate(0 156.3888702392578 0.833343505859375)"><path d="M0.27 -0.52 C52.57 -0.28, 261.12 1.9, 313.29 2.36 M-1.04 1.83 C51.19 1.64, 260.3 0.88, 312.61 0.6" stroke="#1e1e1e" stroke-width="1" fill="none"/></g><g transform="translate(11.650040390342468 177.11109924316406) rotate(0 156.3888702392578 0.833343505859375)"><path d="M289.15 9.26 C294.28 7.82, 302.34 5.62, 312.61 0.6 M289.15 9.26 C297.03 5.68, 305.86 3.64, 312.61 0.6" stroke="#1e1e1e" stroke-width="1" fill="none"/></g><g transform="translate(11.650040390342468 177.11109924316406) rotate(0 156.3888702392578 0.833343505859375)"><path d="M289.08 -7.84 C294.36 -4.87, 302.44 -2.67, 312.61 0.6 M289.08 -7.84 C296.89 -5.49, 305.75 -1.6, 312.61 0.6" stroke="#1e1e1e" stroke-width="1" fill="none"/></g></g><mask/><g stroke-linecap="round"><g transform="translate(37.76121592745184 34.33331298828125) rotate(0 0 70.55557250976562)"><path d="M0.51 0.7 C0.55 24.39, 0.72 118.34, 0.52 141.67 M-0.68 0.01 C-0.77 23.4, 0.03 116.21, -0.15 139.85" stroke="#1e1e1e" stroke-width="1" fill="none"/></g><g transform="translate(37.76121592745184 34.33331298828125) rotate(0 0 70.55557250976562)"><path d="M-8.73 116.37 C-4.9 124.78, -2.35 130.41, -0.15 139.85 M-8.73 116.37 C-6.12 123, -4.28 128.93, -0.15 139.85" stroke="#1e1e1e" stroke-width="1" fill="none"/></g><g transform="translate(37.76121592745184 34.33331298828125) rotate(0 0 70.55557250976562)"><path d="M8.37 116.34 C6.68 124.84, 3.71 130.47, -0.15 139.85 M8.37 116.34 C6.41 122.87, 3.68 128.8, -0.15 139.85" stroke="#1e1e1e" stroke-width="1" fill="none"/></g></g><mask/><g stroke-linecap="round"><g transform="translate(113.72816550562052 31.759061507240403) rotate(0 -0.8718307858969645 71.43390399045893)"><path d="M0.52 0.56 C0.04 24.19, -1.95 118.89, -2.39 142.47 M-0.66 -0.19 C-0.79 23.55, 0.38 119.94, -0.02 143.81" stroke="#1e1e1e" stroke-width="1" fill="none"/></g><g transform="translate(113.72816550562052 31.759061507240403) rotate(0 -0.8718307858969645 71.43390399045893)"><path d="M-8.56 120.31 C-4.56 127.24, -3.23 135.76, -0.02 143.81 M-8.56 120.31 C-6.52 125.75, -4.56 130.55, -0.02 143.81" stroke="#1e1e1e" stroke-width="1" fill="none"/></g><g transform="translate(113.72816550562052 31.759061507240403) rotate(0 -0.8718307858969645 71.43390399045893)"><path d="M8.54 120.32 C6.68 127.32, 2.16 135.84, -0.02 143.81 M8.54 120.32 C6.56 125.81, 4.52 130.61, -0.02 143.81" stroke="#1e1e1e" stroke-width="1" fill="none"/></g></g><mask/><g stroke-linecap="round"><g transform="translate(185.01633894487927 32.111114501953125) rotate(0 0.23756734059984197 72.22224426269531)"><path d="M-0.65 -0.39 C-0.72 23.46, -0.16 119.46, 0.11 143.66 M1.21 -1.64 C0.91 22.29, -0.9 120.74, -1.04 144.79" stroke="#1e1e1e" stroke-width="1" fill="none"/></g><g transform="translate(185.01633894487927 32.111114501953125) rotate(0 0.23756734059984197 72.22224426269531)"><path d="M-9.28 121.19 C-6.99 128.73, -4.81 138.24, -1.04 144.79 M-9.28 121.19 C-6.67 128.23, -4.75 136.36, -1.04 144.79" stroke="#1e1e1e" stroke-width="1" fill="none"/></g><g transform="translate(185.01633894487927 32.111114501953125) rotate(0 0.23756734059984197 72.22224426269531)"><path d="M7.82 121.41 C4.23 128.78, 0.53 138.22, -1.04 144.79 M7.82 121.41 C4.78 128.37, 1.05 136.42, -1.04 144.79" stroke="#1e1e1e" stroke-width="1" fill="none"/></g></g><mask/><g stroke-linecap="round"><g transform="translate(257.36575352808313 37.11112976074219) rotate(0 0.38914704550368384 67.77779388427734)"><path d="M-0.37 -0.78 C-0.05 21.93, 1.07 113.21, 1.25 135.92 M1.64 1.42 C1.89 23.8, 0.84 111.43, 0.55 133.99" stroke="#1e1e1e" stroke-width="1" fill="none"/></g><g transform="translate(257.36575352808313 37.11112976074219) rotate(0 0.38914704550368384 67.77779388427734)"><path d="M-7.72 110.4 C-7.07 117.01, -3.12 121.91, 0.55 133.99 M-7.72 110.4 C-6.21 117, -3.22 124.17, 0.55 133.99" stroke="#1e1e1e" stroke-width="1" fill="none"/></g><g transform="translate(257.36575352808313 37.11112976074219) rotate(0 0.38914704550368384 67.77779388427734)"><path d="M9.38 110.6 C5.82 117.11, 5.57 121.96, 0.55 133.99 M9.38 110.6 C5.84 117.02, 3.78 124.13, 0.55 133.99" stroke="#1e1e1e" stroke-width="1" fill="none"/></g></g><mask/></svg>